<svg xmlns="http://www.w3.org/2000/svg" xmlns:xlink="http://www.w3.org/1999/xlink" width="251.145" height="82.67" viewBox="0 0 251.145 82.67">
  <defs>
    <clipPath id="clip-path">
      <rect id="Rectángulo_19213" data-name="Rectángulo 19213" width="251.145" height="57.323" fill="#fff"/>
    </clipPath>
  </defs>
  <g id="Grupo_69937" data-name="Grupo 69937" transform="translate(20664.064 17526)">
    <g id="Grupo_69935" data-name="Grupo 69935" transform="translate(-20664.064 -17526)">
      <g id="Grupo_69934" data-name="Grupo 69934" transform="translate(0 0)" clip-path="url(#clip-path)">
        <path id="Trazado_153416" data-name="Trazado 153416" d="M23.255.23C47.231-2.017,58.784,17.592,52.538,39.319,45.283,64.55,5.7,63.069.744,36.293-2.4,19.3,4.311,2.005,23.255.23m.42,8.889C5.969,11.877,6.132,50.894,29.314,48.189c19.3-2.253,18.761-42.872-5.639-39.07" transform="translate(0 -0.022)" fill="#003676"/>
        <path id="Trazado_153417" data-name="Trazado 153417" d="M118.168,25.928,142.017,1.414c4.646-3.742,11.544.673,8.177,6.394l-15.031,15.14c4.9,8.09,12.023,15.812,16.622,23.965,1.772,3.141,3.937,7.928-.823,9.8-4.3,1.691-6.857-.723-9.086-3.906-4.907-7.009-8.982-14.715-13.969-21.69l-1.017-.72-8.631,8.323c-.77,4.59,2.012,16.6-4.09,18.193-3.828,1-6.807-1.533-7.163-5.342-1.391-14.891-.447-35,.121-47.162.667-4.524,6.723-5.891,9.509-2.584a7.3,7.3,0,0,1,1.531,3.818Z" transform="translate(-43.118 0)" fill="#003676"/>
        <path id="Trazado_153418" data-name="Trazado 153418" d="M290.8,47.734h21.172c.618,0,2.782.368,3.54,1.81,1.491,2.835.605,6.533-3.2,7.259-2.207-.137-20.4,1.012-29.272-.193-7.369-1-5.375-7.931-2.034-12.208,5.581-7.145,21.723-17.054,23.833-24.3,3.218-11.053-11.269-16.15-16.343-6.54-1.644,3.115-2.392,9.333-7.7,7.427-4.075-1.465-2.8-6.471-1.594-9.585,5.75-14.9,34.388-13.7,36.107,3.133C316.989,31,298.352,36.15,290.8,47.734" transform="translate(-112.781 -0.411)" fill="#eb1c24"/>
        <path id="Trazado_153419" data-name="Trazado 153419" d="M375.564,44.442l-21.872-.192c-5.825-2.352-4.5-6.372-1.669-10.646,6.951-10.5,15.988-20.352,23.108-30.827,3.1-3.827,9.255-2.451,9.755,2.7l.037,30.942c3.049-.008,7.561-.612,8.014,3.384.538,4.749-4.527,5.02-8.012,4.637v8.692c0,3.3-4.438,5.455-7.363,3.351a8.157,8.157,0,0,1-2-3.351Zm0-8.023V14.578L359.517,36.419Z" transform="translate(-141.832 -0.239)" fill="#eb1c24"/>
        <path id="Trazado_153420" data-name="Trazado 153420" d="M207.43,10.968c-5.629-.8-7.12-8.041.5-8.859A181.1,181.1,0,0,1,235.464,2.1c12.321,1.413.657,12.435-2.416,17.1a65.691,65.691,0,0,0-8.33,17.969c-1.184,4.231-2.3,17.047-4.921,19.273-2.923,2.481-7.673,1.381-8.476-2.564-1.4-6.9,4.807-21.433,8.135-27.766,2.789-5.307,6.395-10.106,9.593-15.146Z" transform="translate(-82.234 -0.641)" fill="#eb1c24"/>
      </g>
    </g>
    <path id="Trazado_153421" data-name="Trazado 153421" d="M5.813-16.066a7.288,7.288,0,0,1,1.54.147,5.925,5.925,0,0,1,1.217.4l-.425,1.364a4.667,4.667,0,0,0-1.056-.367,5.055,5.055,0,0,0-1.07-.117,3.362,3.362,0,0,0-1.136.191,2.392,2.392,0,0,0-.931.6A2.957,2.957,0,0,0,3.321-12.8a4.45,4.45,0,0,0-.235,1.532A3.753,3.753,0,0,0,3.8-8.815a2.489,2.489,0,0,0,2.031.858A3.37,3.37,0,0,0,6.972-8.1v-2.155H5.447v-1.5H8.893v4.678a6.949,6.949,0,0,1-1.334.411,8.483,8.483,0,0,1-1.745.161A5.8,5.8,0,0,1,3.9-6.813,4.29,4.29,0,0,1,2.36-7.73a4.294,4.294,0,0,1-1.026-1.5A5.23,5.23,0,0,1,.96-11.271a5.34,5.34,0,0,1,.374-2.06,4.239,4.239,0,0,1,1.019-1.5,4.358,4.358,0,0,1,1.532-.916A5.719,5.719,0,0,1,5.813-16.066Zm4.692,9.4v-6.994h1.51l.22,1.261a2.6,2.6,0,0,1,.792-.982,2.143,2.143,0,0,1,1.364-.425,2.25,2.25,0,0,1,.6.073,1.871,1.871,0,0,1,.44.176l-.323,1.54a1.86,1.86,0,0,0-.411-.154,2.309,2.309,0,0,0-.587-.066,1.621,1.621,0,0,0-1.2.477,2.148,2.148,0,0,0-.477,1.562v3.534ZM20.74-13.661h1.95v6.994H21.239l-.205-.792h-.059a4.364,4.364,0,0,1-.374.33,2.708,2.708,0,0,1-.5.308,3.22,3.22,0,0,1-.645.227,3.362,3.362,0,0,1-.8.088,2.456,2.456,0,0,1-1.782-.631A2.474,2.474,0,0,1,16.224-9v-4.663h1.95v4.5a1.191,1.191,0,0,0,.3.909,1.088,1.088,0,0,0,.77.279,1.749,1.749,0,0,0,.9-.22A1.989,1.989,0,0,0,20.74-8.7ZM20.1-14.7H18.717l1.026-2.185h1.95Zm4.472,1.657A5.731,5.731,0,0,1,25.9-13.61a5.5,5.5,0,0,1,1.5-.2,4.238,4.238,0,0,1,1.151.147,2.359,2.359,0,0,1,.894.462,2.022,2.022,0,0,1,.572.806,3.156,3.156,0,0,1,.2,1.18v4.546H28.7l-.176-.718h-.059a2.327,2.327,0,0,1-.858.645,2.919,2.919,0,0,1-1.21.235,2.814,2.814,0,0,1-1.012-.169,2.288,2.288,0,0,1-.748-.455,1.817,1.817,0,0,1-.462-.682,2.326,2.326,0,0,1-.154-.85,1.99,1.99,0,0,1,.257-1.034,2.063,2.063,0,0,1,.711-.711,3.4,3.4,0,0,1,1.063-.411,6.188,6.188,0,0,1,1.312-.132h.88v-.425a.834.834,0,0,0-.3-.711,1.373,1.373,0,0,0-.843-.227,3.075,3.075,0,0,0-.872.132,5.236,5.236,0,0,0-.99.425Zm3.7,3.314-.631.015a2.24,2.24,0,0,0-1.246.3.8.8,0,0,0-.352.653.733.733,0,0,0,.3.682,1.283,1.283,0,0,0,.682.183,1.328,1.328,0,0,0,.726-.22,1.584,1.584,0,0,0,.521-.513Zm7.977-2.258a3.891,3.891,0,0,0-1.672-.411,1.366,1.366,0,0,0-.726.161.5.5,0,0,0-.257.44.549.549,0,0,0,.227.455,3.138,3.138,0,0,0,.916.381l.44.132a3,3,0,0,1,1.378.762,1.807,1.807,0,0,1,.469,1.29,1.984,1.984,0,0,1-.8,1.657,3.456,3.456,0,0,1-2.163.616,5.293,5.293,0,0,1-2.39-.5l.44-1.437A5.1,5.1,0,0,0,33-8.082a3.332,3.332,0,0,0,.953.139,1.564,1.564,0,0,0,.858-.183.554.554,0,0,0,.271-.477.535.535,0,0,0-.264-.477,4.169,4.169,0,0,0-1-.374l-.455-.132a2.822,2.822,0,0,1-1.29-.777,1.928,1.928,0,0,1-.411-1.29,1.933,1.933,0,0,1,.718-1.554,3.041,3.041,0,0,1,2.009-.6,5.322,5.322,0,0,1,2.258.455Zm2.625,3.475a1.055,1.055,0,0,1,.381.073.876.876,0,0,1,.345.249,1.438,1.438,0,0,1,.257.455,1.958,1.958,0,0,1,.1.675,2.229,2.229,0,0,1-.139.784,3.057,3.057,0,0,1-.367.7A3.265,3.265,0,0,1,38.923-5a2.916,2.916,0,0,1-.616.418l-.484-.645a2.35,2.35,0,0,0,.674-.506,1.515,1.515,0,0,0,.381-.726l-.161-.029a1,1,0,0,1-.85-1.056.994.994,0,0,1,.257-.675A.931.931,0,0,1,38.864-8.514Zm8.944-1.76h2.346l-.425-1.232q-.205-.572-.381-1.151t-.337-1.166h-.029q-.161.557-.352,1.136t-.4,1.18Zm.176-5.631h2.082l3.417,9.238H51.357l-.718-2.126H47.354l-.718,2.126h-2.1ZM58.19-7.942a2.524,2.524,0,0,0,.828-.125,5.071,5.071,0,0,0,.594-.242l.367,1.349a3.889,3.889,0,0,1-.85.308,4.774,4.774,0,0,1-1.217.147A4.566,4.566,0,0,1,56.43-6.74a3.349,3.349,0,0,1-1.2-.7,3.294,3.294,0,0,1-.8-1.136,3.907,3.907,0,0,1-.293-1.569,3.882,3.882,0,0,1,.279-1.5A3.4,3.4,0,0,1,55.2-12.8a3.432,3.432,0,0,1,1.2-.748,4.352,4.352,0,0,1,1.54-.264,5.613,5.613,0,0,1,.96.088,3.638,3.638,0,0,1,1.063.381l-.411,1.349a3.267,3.267,0,0,0-.667-.286,2.467,2.467,0,0,0-.726-.11,2.007,2.007,0,0,0-1.474.557,2.188,2.188,0,0,0-.565,1.628,2.727,2.727,0,0,0,.183,1.063,1.934,1.934,0,0,0,.477.7,1.8,1.8,0,0,0,.66.381A2.439,2.439,0,0,0,58.19-7.942Zm3.065-5.1a5.731,5.731,0,0,1,1.334-.565,5.5,5.5,0,0,1,1.5-.2,4.238,4.238,0,0,1,1.151.147,2.359,2.359,0,0,1,.894.462,2.022,2.022,0,0,1,.572.806,3.156,3.156,0,0,1,.2,1.18v4.546H65.39l-.176-.718h-.059a2.327,2.327,0,0,1-.858.645,2.919,2.919,0,0,1-1.21.235,2.814,2.814,0,0,1-1.012-.169,2.288,2.288,0,0,1-.748-.455,1.817,1.817,0,0,1-.462-.682,2.326,2.326,0,0,1-.154-.85,1.99,1.99,0,0,1,.257-1.034,2.063,2.063,0,0,1,.711-.711,3.4,3.4,0,0,1,1.063-.411,6.188,6.188,0,0,1,1.312-.132h.88v-.425a.834.834,0,0,0-.3-.711,1.373,1.373,0,0,0-.843-.227,3.075,3.075,0,0,0-.872.132,5.236,5.236,0,0,0-.99.425Zm3.7,3.314-.631.015a2.24,2.24,0,0,0-1.246.3.8.8,0,0,0-.352.653.733.733,0,0,0,.3.682A1.283,1.283,0,0,0,63.7-7.9a1.328,1.328,0,0,0,.726-.22,1.584,1.584,0,0,0,.521-.513Zm3.607,3.065v-6.994h1.51l.22,1.261a2.6,2.6,0,0,1,.792-.982,2.143,2.143,0,0,1,1.364-.425,2.25,2.25,0,0,1,.6.073,1.871,1.871,0,0,1,.44.176l-.323,1.54a1.861,1.861,0,0,0-.411-.154,2.309,2.309,0,0,0-.587-.066,1.621,1.621,0,0,0-1.2.477,2.148,2.148,0,0,0-.477,1.562v3.534Zm5.719,0v-6.994h1.51l.22,1.261a2.6,2.6,0,0,1,.792-.982,2.143,2.143,0,0,1,1.364-.425,2.25,2.25,0,0,1,.6.073,1.871,1.871,0,0,1,.44.176l-.323,1.54a1.861,1.861,0,0,0-.411-.154,2.309,2.309,0,0,0-.587-.066,1.621,1.621,0,0,0-1.2.477,2.148,2.148,0,0,0-.477,1.562v3.534ZM85.859-9.658H81.211V-9.6A1.419,1.419,0,0,0,81.8-8.353a2.576,2.576,0,0,0,1.51.411,4.094,4.094,0,0,0,1.034-.117,5.463,5.463,0,0,0,.814-.279l.352,1.364a4.851,4.851,0,0,1-1,.33,6.367,6.367,0,0,1-1.422.139A5.072,5.072,0,0,1,81.6-6.718a3.4,3.4,0,0,1-1.217-.653,3.141,3.141,0,0,1-.828-1.114,3.86,3.86,0,0,1-.308-1.613,4.393,4.393,0,0,1,.249-1.518,3.31,3.31,0,0,1,.711-1.166,3.254,3.254,0,0,1,1.107-.755,3.673,3.673,0,0,1,1.437-.271,3.018,3.018,0,0,1,2.265.865,3.321,3.321,0,0,1,.843,2.419Zm-1.994-1.334a2.228,2.228,0,0,0-.066-.543A1.294,1.294,0,0,0,83.586-12a1.086,1.086,0,0,0-.367-.315,1.142,1.142,0,0,0-.543-.117,1.286,1.286,0,0,0-.968.4,1.767,1.767,0,0,0-.455,1.07Zm10.176.777a4.116,4.116,0,0,1-.279,1.554,3.348,3.348,0,0,1-.77,1.166,3.407,3.407,0,0,1-1.151.733,3.89,3.89,0,0,1-1.422.257A4.152,4.152,0,0,1,89-6.74a3.166,3.166,0,0,1-1.129-.689,3.182,3.182,0,0,1-.748-1.122,4,4,0,0,1-.271-1.518,4.257,4.257,0,0,1,.279-1.591,3.334,3.334,0,0,1,.77-1.173,3.316,3.316,0,0,1,1.151-.726,3.992,3.992,0,0,1,1.422-.249,4.152,4.152,0,0,1,1.415.235,3.22,3.22,0,0,1,1.129.682,3.1,3.1,0,0,1,.748,1.122A4.142,4.142,0,0,1,94.041-10.215Zm-2.009.073a3.492,3.492,0,0,0-.132-1.026,1.984,1.984,0,0,0-.352-.689,1.353,1.353,0,0,0-.513-.389,1.523,1.523,0,0,0-.6-.125,1.583,1.583,0,0,0-.587.11,1.27,1.27,0,0,0-.5.367,1.9,1.9,0,0,0-.352.682,3.671,3.671,0,0,0-.132,1.07,3.3,3.3,0,0,0,.132.99,1.916,1.916,0,0,0,.359.682,1.514,1.514,0,0,0,.513.4,1.4,1.4,0,0,0,.594.132,1.583,1.583,0,0,0,.587-.11,1.244,1.244,0,0,0,.5-.374,1.989,1.989,0,0,0,.352-.682A3.476,3.476,0,0,0,92.032-10.142Zm7.625-1.848a3.891,3.891,0,0,0-1.672-.411,1.366,1.366,0,0,0-.726.161A.5.5,0,0,0,97-11.8a.549.549,0,0,0,.227.455,3.138,3.138,0,0,0,.916.381l.44.132a3,3,0,0,1,1.378.762,1.807,1.807,0,0,1,.469,1.29,1.984,1.984,0,0,1-.8,1.657,3.456,3.456,0,0,1-2.163.616,5.293,5.293,0,0,1-2.39-.5l.44-1.437a5.1,5.1,0,0,0,.894.359,3.332,3.332,0,0,0,.953.139,1.564,1.564,0,0,0,.858-.183A.554.554,0,0,0,98.5-8.6a.535.535,0,0,0-.264-.477,4.169,4.169,0,0,0-1-.374l-.455-.132a2.822,2.822,0,0,1-1.29-.777,1.928,1.928,0,0,1-.411-1.29,1.933,1.933,0,0,1,.718-1.554,3.041,3.041,0,0,1,2.009-.6,5.322,5.322,0,0,1,2.258.455Zm5.543-1.672h2.126l1.246,3.329.469,1.7h.059l.455-1.716,1.085-3.314h1.994l-2.566,7.244a11.634,11.634,0,0,1-.491,1.151,5.2,5.2,0,0,1-.66,1.019,4.553,4.553,0,0,1-.916.836,4.764,4.764,0,0,1-1.246.6l-.806-1.51a3.654,3.654,0,0,0,1.378-.85,2.9,2.9,0,0,0,.762-1.334l.059-.191ZM118.485-15.9h2.537l1.32,4.208q.088.279.183.6t.183.645q.088.323.161.631t.117.572h.059q.044-.235.117-.55t.161-.653q.088-.337.176-.66t.161-.587l1.276-4.208h2.537l.689,9.238h-1.892l-.176-3.05q-.088-1.525-.117-3.079l-.015-1.2h-.044q-.191.806-.418,1.686t-.433,1.54l-1.305,4.106h-1.554l-1.334-4.12q-.249-.792-.469-1.672T120.053-14h-.044q0,.528-.015,1.107t-.037,1.151q-.022.572-.044,1.122t-.051,1l-.176,2.947h-1.862Zm15.865,2.243h1.95v6.994h-1.452l-.205-.792h-.059a4.365,4.365,0,0,1-.374.33,2.708,2.708,0,0,1-.5.308,3.219,3.219,0,0,1-.645.227,3.362,3.362,0,0,1-.8.088,2.456,2.456,0,0,1-1.782-.631A2.474,2.474,0,0,1,129.834-9v-4.663h1.95v4.5a1.191,1.191,0,0,0,.3.909,1.088,1.088,0,0,0,.77.279,1.749,1.749,0,0,0,.9-.22,1.988,1.988,0,0,0,.594-.513Zm8.226-3.475h1.95V-6.667h-1.393l-.205-.762h-.073a2.319,2.319,0,0,1-.755.645,2.587,2.587,0,0,1-1.283.279,3.049,3.049,0,0,1-1.232-.249,2.892,2.892,0,0,1-1-.718,3.378,3.378,0,0,1-.667-1.144,4.545,4.545,0,0,1-.242-1.54,4.856,4.856,0,0,1,.22-1.51,3.313,3.313,0,0,1,.631-1.151,2.728,2.728,0,0,1,1.012-.733,3.484,3.484,0,0,1,1.378-.257,3.016,3.016,0,0,1,.946.147,1.993,1.993,0,0,1,.711.381Zm0,5.308a1.569,1.569,0,0,0-.5-.4,1.431,1.431,0,0,0-.674-.161,1.9,1.9,0,0,0-.667.117,1.458,1.458,0,0,0-.557.374,1.871,1.871,0,0,0-.389.675,3.1,3.1,0,0,0-.147,1.019,3.433,3.433,0,0,0,.132,1.012,2.157,2.157,0,0,0,.352.7,1.352,1.352,0,0,0,.521.411,1.569,1.569,0,0,0,.638.132,1.374,1.374,0,0,0,.8-.227,1.5,1.5,0,0,0,.491-.535Zm3.856-1.217a5.731,5.731,0,0,1,1.334-.565,5.5,5.5,0,0,1,1.5-.2,4.238,4.238,0,0,1,1.151.147,2.359,2.359,0,0,1,.894.462,2.022,2.022,0,0,1,.572.806,3.156,3.156,0,0,1,.2,1.18v4.546h-1.51l-.176-.718h-.059a2.327,2.327,0,0,1-.858.645,2.919,2.919,0,0,1-1.21.235,2.814,2.814,0,0,1-1.012-.169,2.288,2.288,0,0,1-.748-.455,1.817,1.817,0,0,1-.462-.682,2.326,2.326,0,0,1-.154-.85,1.99,1.99,0,0,1,.257-1.034,2.063,2.063,0,0,1,.711-.711,3.4,3.4,0,0,1,1.063-.411,6.188,6.188,0,0,1,1.312-.132h.88v-.425a.834.834,0,0,0-.3-.711,1.373,1.373,0,0,0-.843-.227,3.075,3.075,0,0,0-.872.132,5.236,5.236,0,0,0-.99.425Zm3.7,3.314-.631.015a2.24,2.24,0,0,0-1.246.3.8.8,0,0,0-.352.653.733.733,0,0,0,.3.682,1.283,1.283,0,0,0,.682.183,1.328,1.328,0,0,0,.726-.22,1.584,1.584,0,0,0,.521-.513Zm5.557,3.065h-1.95v-6.994h1.525l.235.894a3.618,3.618,0,0,1,1.063-.77,2.988,2.988,0,0,1,1.283-.271,2.369,2.369,0,0,1,1.774.631,2.518,2.518,0,0,1,.616,1.833v4.678h-1.95v-4.472a1.3,1.3,0,0,0-.264-.858.956.956,0,0,0-.777-.315,1.764,1.764,0,0,0-.8.213,2.665,2.665,0,0,0-.755.579Zm11.2-5.807-3.27,4.4h3.343v1.408h-5.528V-7.9l3.27-4.355h-3.079v-1.408h5.264Zm1.378-.572a5.732,5.732,0,0,1,1.334-.565,5.5,5.5,0,0,1,1.5-.2,4.238,4.238,0,0,1,1.151.147,2.359,2.359,0,0,1,.894.462,2.022,2.022,0,0,1,.572.806,3.156,3.156,0,0,1,.2,1.18v4.546H172.4l-.176-.718h-.059a2.327,2.327,0,0,1-.858.645,2.919,2.919,0,0,1-1.21.235,2.814,2.814,0,0,1-1.012-.169,2.288,2.288,0,0,1-.748-.455,1.816,1.816,0,0,1-.462-.682,2.326,2.326,0,0,1-.154-.85,1.99,1.99,0,0,1,.257-1.034,2.063,2.063,0,0,1,.711-.711,3.4,3.4,0,0,1,1.063-.411,6.188,6.188,0,0,1,1.312-.132h.88v-.425a.834.834,0,0,0-.3-.711,1.373,1.373,0,0,0-.843-.227,3.075,3.075,0,0,0-.872.132,5.235,5.235,0,0,0-.99.425Zm3.7,3.314-.631.015a2.24,2.24,0,0,0-1.246.3.8.8,0,0,0-.352.653.733.733,0,0,0,.3.682,1.283,1.283,0,0,0,.682.183,1.328,1.328,0,0,0,.726-.22,1.584,1.584,0,0,0,.521-.513Zm7.977-2.258a3.891,3.891,0,0,0-1.672-.411,1.366,1.366,0,0,0-.726.161.5.5,0,0,0-.257.44.549.549,0,0,0,.227.455,3.139,3.139,0,0,0,.916.381l.44.132a3,3,0,0,1,1.378.762,1.807,1.807,0,0,1,.469,1.29,1.984,1.984,0,0,1-.8,1.657,3.456,3.456,0,0,1-2.163.616,5.293,5.293,0,0,1-2.39-.5l.44-1.437a5.1,5.1,0,0,0,.894.359,3.332,3.332,0,0,0,.953.139,1.564,1.564,0,0,0,.858-.183.554.554,0,0,0,.271-.477.535.535,0,0,0-.264-.477,4.169,4.169,0,0,0-1-.374l-.455-.132a2.822,2.822,0,0,1-1.29-.777,1.928,1.928,0,0,1-.411-1.29,1.933,1.933,0,0,1,.718-1.554,3.041,3.041,0,0,1,2.009-.6,5.322,5.322,0,0,1,2.258.455Zm8.417,1.7h2.8l-.543-1.5q-.249-.616-.433-1.151t-.389-1.224h-.029q-.22.645-.411,1.2t-.44,1.2Zm.7-5.616h1.5l3.592,9.238H192.5l-.924-2.419h-3.622l-.909,2.419h-1.628Zm14.854,2.317h1.51v6.921h-1.158l-.191-.836h-.059a3.715,3.715,0,0,1-.924.682,2.807,2.807,0,0,1-1.349.3,2.475,2.475,0,0,1-1.76-.616,2.409,2.409,0,0,1-.66-1.848v-4.6h1.51v4.443a1.432,1.432,0,0,0,.374,1.129,1.334,1.334,0,0,0,.9.323,2.065,2.065,0,0,0,1.012-.242,2.973,2.973,0,0,0,.792-.638Zm4.927,6.921h-1.51v-6.921h1.188l.205.924a4.106,4.106,0,0,1,1.078-.77,2.926,2.926,0,0,1,1.283-.271,2.3,2.3,0,0,1,1.7.6,2.321,2.321,0,0,1,.6,1.716v4.722h-1.51V-11.2a1.4,1.4,0,0,0-.308-.953,1.162,1.162,0,0,0-.924-.352,2.091,2.091,0,0,0-.931.227,3.155,3.155,0,0,0-.872.653Zm15.015-1.114a4.818,4.818,0,0,0,1.2-.125,4.949,4.949,0,0,0,.9-.33l.337,1.217a5.328,5.328,0,0,1-1.085.359,6.968,6.968,0,0,1-1.51.139,4.967,4.967,0,0,1-1.782-.315,4.036,4.036,0,0,1-1.437-.924,4.353,4.353,0,0,1-.96-1.5,5.475,5.475,0,0,1-.352-2.031,5.6,5.6,0,0,1,.337-2,4.259,4.259,0,0,1,.946-1.5,4.045,4.045,0,0,1,1.452-.938,5.151,5.151,0,0,1,1.855-.323,6.2,6.2,0,0,1,1.518.154,4.549,4.549,0,0,1,1.048.4l-.367,1.188a7.883,7.883,0,0,0-.946-.352,3.782,3.782,0,0,0-1.063-.132,3.71,3.71,0,0,0-1.2.191,2.464,2.464,0,0,0-.982.616,3.061,3.061,0,0,0-.667,1.092,4.6,4.6,0,0,0-.249,1.606,4.725,4.725,0,0,0,.242,1.606,3.021,3.021,0,0,0,.645,1.085,2.469,2.469,0,0,0,.953.616A3.415,3.415,0,0,0,223.853-7.781Zm4.091,1.114V-17.092h1.481V-6.667Zm3.622,0v-6.921h1.51v6.921Zm.762-8.637a.838.838,0,0,1-.631-.242.839.839,0,0,1-.235-.609.839.839,0,0,1,.235-.609.838.838,0,0,1,.631-.242.843.843,0,0,1,.623.242.825.825,0,0,1,.242.609.819.819,0,0,1-.242.616A.858.858,0,0,1,232.329-15.3Zm6.232,7.639a2.834,2.834,0,0,0,.828-.11,4.221,4.221,0,0,0,.653-.257l.308,1.085a3.443,3.443,0,0,1-.85.308,4.8,4.8,0,0,1-1.1.117,4.4,4.4,0,0,1-1.43-.227,3.259,3.259,0,0,1-1.158-.675,3.158,3.158,0,0,1-.777-1.122,4,4,0,0,1-.286-1.569,4.015,4.015,0,0,1,.264-1.488,3.2,3.2,0,0,1,.748-1.136,3.268,3.268,0,0,1,1.158-.718A4.242,4.242,0,0,1,238.4-13.7a5.838,5.838,0,0,1,.916.073,3.815,3.815,0,0,1,1.019.337l-.337,1.1a2.929,2.929,0,0,0-1.437-.381,2.221,2.221,0,0,0-1.642.631,2.42,2.42,0,0,0-.631,1.789,3.086,3.086,0,0,0,.2,1.18,2.119,2.119,0,0,0,.521.77,1.9,1.9,0,0,0,.726.418A2.79,2.79,0,0,0,238.56-7.664Zm4.692-1.466v2.463h-1.5V-17.092h1.5V-10.7l2.625-2.889h1.848l-2.786,2.918,2.918,4h-1.774L243.9-9.775ZM250.379-15,250.2-9.189h-1.144L248.913-15Zm-.748,6.745a.79.79,0,0,1,.594.235.848.848,0,0,1,.227.616.848.848,0,0,1-.227.616.79.79,0,0,1-.594.235.79.79,0,0,1-.594-.235.848.848,0,0,1-.227-.616.848.848,0,0,1,.227-.616A.79.79,0,0,1,249.631-8.25Z" transform="translate(-20664.398 -17440.52)" fill="#003676"/>
  </g>
</svg>
