<svg xmlns="http://www.w3.org/2000/svg" xmlns:xlink="http://www.w3.org/1999/xlink" width="80.936" height="26.641" viewBox="0 0 80.936 26.641">
  <defs>
    <clipPath id="clip-path">
      <rect id="Rectángulo_19213" data-name="Rectángulo 19213" width="80.936" height="18.473" fill="#fff"/>
    </clipPath>
  </defs>
  <g id="Grupo_69939" data-name="Grupo 69939" transform="translate(20664.064 17526)">
    <g id="Grupo_69935" data-name="Grupo 69935" transform="translate(-20664.064 -17526)">
      <g id="Grupo_69934" data-name="Grupo 69934" transform="translate(0 0)" clip-path="url(#clip-path)">
        <path id="Trazado_153416" data-name="Trazado 153416" d="M7.494.111c7.727-.724,11.45,5.6,9.437,12.6C14.593,20.839,1.837,20.362.24,11.733-.774,6.256,1.389.683,7.494.111M7.63,2.975c-5.706.889-5.654,13.463,1.817,12.591C15.668,14.84,15.493,1.75,7.63,2.975" transform="translate(0 -0.044)" fill="#fff"/>
        <path id="Trazado_153417" data-name="Trazado 153417" d="M110.114,8.356,117.8.456c1.5-1.206,3.72.217,2.635,2.061L115.591,7.4c1.578,2.607,3.875,5.1,5.357,7.723.571,1.012,1.269,2.555-.265,3.159-1.384.545-2.21-.233-2.928-1.259-1.581-2.259-2.895-4.742-4.5-6.99l-.328-.232-2.781,2.682c-.248,1.479.649,5.349-1.318,5.863a1.8,1.8,0,0,1-2.308-1.722,121.468,121.468,0,0,1,.039-15.2,1.776,1.776,0,0,1,3.064-.833,2.351,2.351,0,0,1,.493,1.23Z" transform="translate(-85.928 0)" fill="#fff"/>
        <path id="Trazado_153418" data-name="Trazado 153418" d="M282.125,16.069h6.823a1.439,1.439,0,0,1,1.141.583,1.531,1.531,0,0,1-1.032,2.339c-.711-.044-6.575.326-9.434-.062-2.375-.323-1.732-2.556-.656-3.934,1.8-2.3,7-5.5,7.68-7.832a2.84,2.84,0,0,0-5.267-2.108c-.53,1-.771,3.008-2.48,2.393-1.313-.472-.9-2.086-.514-3.089,1.853-4.8,11.082-4.414,11.636,1.01.542,5.307-5.464,6.967-7.9,10.7" transform="translate(-224.757 -0.819)" fill="#eb1c24"/>
        <path id="Trazado_153419" data-name="Trazado 153419" d="M357.974,14.722l-7.049-.062c-1.877-.758-1.45-2.054-.538-3.431,2.24-3.383,5.152-6.559,7.447-9.934a1.742,1.742,0,0,1,3.144.871l.012,9.972c.983,0,2.437-.2,2.583,1.091.174,1.53-1.459,1.618-2.582,1.494v2.8a1.517,1.517,0,0,1-2.373,1.08,2.629,2.629,0,0,1-.644-1.08Zm0-2.586V5.1L352.8,12.136Z" transform="translate(-282.65 -0.477)" fill="#eb1c24"/>
        <path id="Trazado_153420" data-name="Trazado 153420" d="M204.227,4.606c-1.814-.256-2.295-2.591.162-2.855a58.363,58.363,0,0,1,8.873,0c3.971.455.212,4.008-.779,5.511A21.171,21.171,0,0,0,209.8,13.05c-.382,1.363-.741,5.494-1.586,6.211a1.654,1.654,0,0,1-2.732-.826c-.452-2.223,1.549-6.907,2.622-8.948.9-1.71,2.061-3.257,3.091-4.881Z" transform="translate(-163.881 -1.278)" fill="#eb1c24"/>
      </g>
    </g>
    <path id="Trazado_153421" data-name="Trazado 153421" d="M2.524-16.791a2.349,2.349,0,0,1,.5.047,1.91,1.91,0,0,1,.392.128l-.137.439a1.5,1.5,0,0,0-.34-.118,1.629,1.629,0,0,0-.345-.038,1.083,1.083,0,0,0-.366.061.771.771,0,0,0-.3.194.953.953,0,0,0-.2.338,1.434,1.434,0,0,0-.076.494,1.21,1.21,0,0,0,.229.792.8.8,0,0,0,.654.276,1.086,1.086,0,0,0,.369-.047v-.695H2.406V-15.4h1.11v1.507a2.24,2.24,0,0,1-.43.132,2.734,2.734,0,0,1-.562.052,1.868,1.868,0,0,1-.617-.1,1.382,1.382,0,0,1-.5-.3,1.384,1.384,0,0,1-.331-.482,1.685,1.685,0,0,1-.12-.659,1.721,1.721,0,0,1,.12-.664,1.366,1.366,0,0,1,.328-.484,1.4,1.4,0,0,1,.494-.3A1.843,1.843,0,0,1,2.524-16.791Zm1.512,3.029v-2.254h.487l.071.406a.836.836,0,0,1,.255-.317.691.691,0,0,1,.439-.137.725.725,0,0,1,.194.024.6.6,0,0,1,.142.057l-.1.5a.6.6,0,0,0-.132-.05.744.744,0,0,0-.189-.021.522.522,0,0,0-.385.154.692.692,0,0,0-.154.5v1.139Zm3.3-2.254h.628v2.254H7.5l-.066-.255H7.41a1.406,1.406,0,0,1-.12.106.873.873,0,0,1-.161.1,1.038,1.038,0,0,1-.208.073,1.084,1.084,0,0,1-.258.028.791.791,0,0,1-.574-.2.8.8,0,0,1-.21-.6v-1.5h.628v1.451a.384.384,0,0,0,.1.293.351.351,0,0,0,.248.09.564.564,0,0,0,.291-.071.641.641,0,0,0,.191-.165Zm-.208-.336H6.682l.331-.7h.628Zm1.441.534A1.847,1.847,0,0,1,9-16a1.773,1.773,0,0,1,.482-.064,1.366,1.366,0,0,1,.371.047.76.76,0,0,1,.288.149.652.652,0,0,1,.184.26,1.017,1.017,0,0,1,.064.38v1.465H9.9l-.057-.232H9.825a.75.75,0,0,1-.276.208.941.941,0,0,1-.39.076.907.907,0,0,1-.326-.054.737.737,0,0,1-.241-.146.585.585,0,0,1-.149-.22.75.75,0,0,1-.05-.274.641.641,0,0,1,.083-.333.665.665,0,0,1,.229-.229,1.1,1.1,0,0,1,.343-.132,1.994,1.994,0,0,1,.423-.043h.284v-.137a.269.269,0,0,0-.1-.229.442.442,0,0,0-.272-.073.991.991,0,0,0-.281.043,1.687,1.687,0,0,0-.319.137ZM9.759-14.75l-.2,0a.722.722,0,0,0-.4.1.259.259,0,0,0-.113.21.236.236,0,0,0,.1.22.414.414,0,0,0,.22.059.428.428,0,0,0,.234-.071.51.51,0,0,0,.168-.165Zm2.571-.728a1.254,1.254,0,0,0-.539-.132.44.44,0,0,0-.234.052.16.16,0,0,0-.083.142.177.177,0,0,0,.073.146,1.011,1.011,0,0,0,.3.123l.142.043a.966.966,0,0,1,.444.246.582.582,0,0,1,.151.416.639.639,0,0,1-.258.534,1.114,1.114,0,0,1-.7.2,1.706,1.706,0,0,1-.77-.161L11-14.334a1.645,1.645,0,0,0,.288.116,1.074,1.074,0,0,0,.307.045.5.5,0,0,0,.276-.059.178.178,0,0,0,.087-.154.172.172,0,0,0-.085-.154,1.344,1.344,0,0,0-.321-.12L11.4-14.7a.909.909,0,0,1-.416-.25.621.621,0,0,1-.132-.416.623.623,0,0,1,.232-.5.98.98,0,0,1,.647-.194,1.715,1.715,0,0,1,.728.146Zm.846,1.12a.34.34,0,0,1,.123.024.282.282,0,0,1,.111.08.464.464,0,0,1,.083.146.631.631,0,0,1,.033.217.718.718,0,0,1-.045.253.985.985,0,0,1-.118.224,1.052,1.052,0,0,1-.168.187.94.94,0,0,1-.2.135L12.84-13.3a.757.757,0,0,0,.217-.163.488.488,0,0,0,.123-.234l-.052-.009a.32.32,0,0,1-.274-.34.32.32,0,0,1,.083-.217A.3.3,0,0,1,13.175-14.357Zm2.883-.567h.756l-.137-.4q-.066-.184-.123-.371t-.109-.376h-.009q-.052.18-.113.366t-.128.38Zm.057-1.815h.671l1.1,2.977H17.2l-.232-.685H15.911l-.232.685H15ZM19.4-14.173a.813.813,0,0,0,.267-.04,1.634,1.634,0,0,0,.191-.078l.118.435a1.253,1.253,0,0,1-.274.1,1.538,1.538,0,0,1-.392.047,1.471,1.471,0,0,1-.477-.076,1.079,1.079,0,0,1-.385-.224,1.061,1.061,0,0,1-.258-.366,1.259,1.259,0,0,1-.095-.506,1.251,1.251,0,0,1,.09-.482,1.1,1.1,0,0,1,.25-.373,1.106,1.106,0,0,1,.387-.241,1.4,1.4,0,0,1,.5-.085,1.809,1.809,0,0,1,.31.028,1.172,1.172,0,0,1,.343.123l-.132.435a1.053,1.053,0,0,0-.215-.092.8.8,0,0,0-.234-.035.647.647,0,0,0-.475.18.705.705,0,0,0-.182.525.879.879,0,0,0,.059.343.623.623,0,0,0,.154.224.578.578,0,0,0,.213.123A.786.786,0,0,0,19.4-14.173Zm.988-1.644a1.847,1.847,0,0,1,.43-.182,1.773,1.773,0,0,1,.482-.064,1.366,1.366,0,0,1,.371.047.76.76,0,0,1,.288.149.652.652,0,0,1,.184.26,1.017,1.017,0,0,1,.064.38v1.465h-.487l-.057-.232h-.019a.75.75,0,0,1-.276.208.941.941,0,0,1-.39.076.907.907,0,0,1-.326-.054.737.737,0,0,1-.241-.146.585.585,0,0,1-.149-.22.75.75,0,0,1-.05-.274.641.641,0,0,1,.083-.333.665.665,0,0,1,.229-.229,1.1,1.1,0,0,1,.343-.132,1.994,1.994,0,0,1,.423-.043h.284v-.137a.269.269,0,0,0-.1-.229.442.442,0,0,0-.272-.073.991.991,0,0,0-.281.043,1.687,1.687,0,0,0-.319.137Zm1.191,1.068-.2,0a.722.722,0,0,0-.4.1.259.259,0,0,0-.113.21.236.236,0,0,0,.1.22.414.414,0,0,0,.22.059.428.428,0,0,0,.234-.071.511.511,0,0,0,.168-.165Zm1.162.988v-2.254h.487l.071.406a.836.836,0,0,1,.255-.317A.691.691,0,0,1,24-16.063a.725.725,0,0,1,.194.024.6.6,0,0,1,.142.057l-.1.5a.6.6,0,0,0-.132-.05.744.744,0,0,0-.189-.021.522.522,0,0,0-.385.154.692.692,0,0,0-.154.5v1.139Zm1.843,0v-2.254h.487l.071.406a.836.836,0,0,1,.255-.317.691.691,0,0,1,.439-.137.725.725,0,0,1,.194.024.6.6,0,0,1,.142.057l-.1.5a.6.6,0,0,0-.132-.05.744.744,0,0,0-.189-.021.522.522,0,0,0-.385.154.692.692,0,0,0-.154.5v1.139Zm3.733-.964h-1.5v.019a.457.457,0,0,0,.189.4.83.83,0,0,0,.487.132,1.319,1.319,0,0,0,.333-.038,1.761,1.761,0,0,0,.262-.09l.113.439a1.563,1.563,0,0,1-.321.106,2.052,2.052,0,0,1-.458.045,1.635,1.635,0,0,1-.48-.069,1.1,1.1,0,0,1-.392-.21,1.012,1.012,0,0,1-.267-.359,1.244,1.244,0,0,1-.1-.52,1.416,1.416,0,0,1,.08-.489,1.067,1.067,0,0,1,.229-.376,1.049,1.049,0,0,1,.357-.243,1.184,1.184,0,0,1,.463-.087.973.973,0,0,1,.73.279,1.07,1.07,0,0,1,.272.78Zm-.643-.43a.718.718,0,0,0-.021-.175.417.417,0,0,0-.069-.149.35.35,0,0,0-.118-.1.368.368,0,0,0-.175-.038.414.414,0,0,0-.312.128.569.569,0,0,0-.146.345Zm3.279.25a1.326,1.326,0,0,1-.09.5,1.079,1.079,0,0,1-.248.376,1.1,1.1,0,0,1-.371.236,1.254,1.254,0,0,1-.458.083,1.338,1.338,0,0,1-.456-.076,1.02,1.02,0,0,1-.364-.222,1.025,1.025,0,0,1-.241-.361,1.289,1.289,0,0,1-.087-.489,1.372,1.372,0,0,1,.09-.513,1.074,1.074,0,0,1,.248-.378,1.069,1.069,0,0,1,.371-.234,1.286,1.286,0,0,1,.458-.08,1.338,1.338,0,0,1,.456.076,1.038,1.038,0,0,1,.364.22,1,1,0,0,1,.241.361A1.335,1.335,0,0,1,30.957-14.906Zm-.647.024a1.125,1.125,0,0,0-.043-.331.639.639,0,0,0-.113-.222.436.436,0,0,0-.165-.125.491.491,0,0,0-.194-.04.51.51,0,0,0-.189.035.409.409,0,0,0-.161.118.613.613,0,0,0-.113.22,1.183,1.183,0,0,0-.043.345,1.064,1.064,0,0,0,.043.319.617.617,0,0,0,.116.22.488.488,0,0,0,.165.128.452.452,0,0,0,.191.043.51.51,0,0,0,.189-.035.4.4,0,0,0,.161-.12.641.641,0,0,0,.113-.22A1.12,1.12,0,0,0,30.31-14.882Zm2.457-.6a1.254,1.254,0,0,0-.539-.132.44.44,0,0,0-.234.052.16.16,0,0,0-.083.142.177.177,0,0,0,.073.146,1.011,1.011,0,0,0,.3.123l.142.043a.966.966,0,0,1,.444.246.582.582,0,0,1,.151.416.639.639,0,0,1-.258.534,1.114,1.114,0,0,1-.7.2,1.706,1.706,0,0,1-.77-.161l.142-.463a1.645,1.645,0,0,0,.288.116,1.074,1.074,0,0,0,.307.045.5.5,0,0,0,.276-.059.178.178,0,0,0,.087-.154.172.172,0,0,0-.085-.154,1.344,1.344,0,0,0-.321-.12l-.146-.043a.909.909,0,0,1-.416-.25.621.621,0,0,1-.132-.416.623.623,0,0,1,.232-.5.98.98,0,0,1,.647-.194,1.715,1.715,0,0,1,.728.146Zm1.786-.539h.685l.4,1.073.151.548h.019l.146-.553.35-1.068h.643l-.827,2.334a3.75,3.75,0,0,1-.158.371,1.675,1.675,0,0,1-.213.328,1.467,1.467,0,0,1-.3.269,1.535,1.535,0,0,1-.4.194l-.26-.487a1.177,1.177,0,0,0,.444-.274.935.935,0,0,0,.246-.43l.019-.061Zm4.281-.723h.818l.425,1.356q.028.09.059.194t.059.208q.028.1.052.2t.038.184H40.3q.014-.076.038-.177t.052-.21q.028-.109.057-.213l.052-.189.411-1.356h.818l.222,2.977h-.61l-.057-.983q-.028-.491-.038-.992l0-.387H41.23q-.061.26-.135.543t-.139.5l-.421,1.323h-.5L39.6-15.09q-.08-.255-.151-.539t-.113-.5h-.014q0,.17,0,.357t-.012.371q-.007.184-.014.361t-.017.324l-.057.95h-.6Zm5.113.723h.628v2.254h-.468l-.066-.255h-.019a1.406,1.406,0,0,1-.12.106.873.873,0,0,1-.161.1,1.037,1.037,0,0,1-.208.073,1.084,1.084,0,0,1-.258.028.791.791,0,0,1-.574-.2.8.8,0,0,1-.21-.6v-1.5h.628v1.451a.384.384,0,0,0,.1.293.351.351,0,0,0,.248.09.564.564,0,0,0,.291-.071.641.641,0,0,0,.191-.165Zm2.651-1.12h.628v3.374h-.449l-.066-.246h-.024a.747.747,0,0,1-.243.208.834.834,0,0,1-.413.09.982.982,0,0,1-.4-.08.932.932,0,0,1-.321-.232,1.089,1.089,0,0,1-.215-.369,1.465,1.465,0,0,1-.078-.5,1.565,1.565,0,0,1,.071-.487,1.068,1.068,0,0,1,.2-.371.879.879,0,0,1,.326-.236,1.123,1.123,0,0,1,.444-.083.972.972,0,0,1,.3.047.642.642,0,0,1,.229.123Zm0,1.711a.505.505,0,0,0-.161-.128.461.461,0,0,0-.217-.052.611.611,0,0,0-.215.038.47.47,0,0,0-.18.12.6.6,0,0,0-.125.217,1,1,0,0,0-.047.328,1.106,1.106,0,0,0,.043.326.7.7,0,0,0,.113.227.435.435,0,0,0,.168.132.506.506,0,0,0,.206.043.443.443,0,0,0,.258-.073.482.482,0,0,0,.158-.172Zm1.243-.392a1.847,1.847,0,0,1,.43-.182,1.773,1.773,0,0,1,.482-.064,1.366,1.366,0,0,1,.371.047.76.76,0,0,1,.288.149.652.652,0,0,1,.184.26,1.017,1.017,0,0,1,.064.38v1.465h-.487l-.057-.232H49.1a.75.75,0,0,1-.276.208.941.941,0,0,1-.39.076.907.907,0,0,1-.326-.054.737.737,0,0,1-.241-.146.585.585,0,0,1-.149-.22.75.75,0,0,1-.05-.274.641.641,0,0,1,.083-.333.665.665,0,0,1,.229-.229,1.1,1.1,0,0,1,.343-.132,1.994,1.994,0,0,1,.423-.043h.284v-.137a.269.269,0,0,0-.1-.229.442.442,0,0,0-.272-.073.991.991,0,0,0-.281.043,1.687,1.687,0,0,0-.319.137Zm1.191,1.068-.2,0a.722.722,0,0,0-.4.1.259.259,0,0,0-.113.21.236.236,0,0,0,.1.22.414.414,0,0,0,.22.059.428.428,0,0,0,.234-.071.51.51,0,0,0,.168-.165Zm1.791.988h-.628v-2.254h.491l.076.288a1.166,1.166,0,0,1,.343-.248.963.963,0,0,1,.413-.087.763.763,0,0,1,.572.2.812.812,0,0,1,.2.591v1.507h-.628V-15.2a.417.417,0,0,0-.085-.276.308.308,0,0,0-.25-.1.568.568,0,0,0-.258.069.859.859,0,0,0-.243.187Zm3.61-1.871-1.054,1.418h1.077v.454H52.675v-.4l1.054-1.4h-.992v-.454h1.7Zm.444-.184a1.847,1.847,0,0,1,.43-.182,1.773,1.773,0,0,1,.482-.064,1.366,1.366,0,0,1,.371.047.76.76,0,0,1,.288.149.652.652,0,0,1,.184.26,1.017,1.017,0,0,1,.064.38v1.465H56.21l-.057-.232h-.019a.75.75,0,0,1-.276.208.941.941,0,0,1-.39.076.907.907,0,0,1-.326-.054.737.737,0,0,1-.241-.146.585.585,0,0,1-.149-.22.75.75,0,0,1-.05-.274.641.641,0,0,1,.083-.333.665.665,0,0,1,.229-.229,1.1,1.1,0,0,1,.343-.132,1.994,1.994,0,0,1,.423-.043h.284v-.137a.269.269,0,0,0-.1-.229.442.442,0,0,0-.272-.073.991.991,0,0,0-.281.043,1.687,1.687,0,0,0-.319.137Zm1.191,1.068-.2,0a.722.722,0,0,0-.4.1.259.259,0,0,0-.113.21.236.236,0,0,0,.1.22.414.414,0,0,0,.22.059.428.428,0,0,0,.234-.071.51.51,0,0,0,.168-.165Zm2.571-.728a1.254,1.254,0,0,0-.539-.132.44.44,0,0,0-.234.052.16.16,0,0,0-.083.142.177.177,0,0,0,.073.146,1.011,1.011,0,0,0,.3.123l.142.043a.966.966,0,0,1,.444.246.582.582,0,0,1,.151.416.639.639,0,0,1-.258.534,1.114,1.114,0,0,1-.7.2,1.706,1.706,0,0,1-.77-.161l.142-.463a1.645,1.645,0,0,0,.288.116,1.074,1.074,0,0,0,.307.045.5.5,0,0,0,.276-.059.178.178,0,0,0,.087-.154.172.172,0,0,0-.085-.154,1.343,1.343,0,0,0-.321-.12l-.146-.043a.909.909,0,0,1-.416-.25.621.621,0,0,1-.132-.416.623.623,0,0,1,.232-.5.98.98,0,0,1,.647-.194,1.715,1.715,0,0,1,.728.146Zm2.712.548h.9l-.175-.482q-.08-.2-.139-.371t-.125-.395H61.8q-.071.208-.132.385t-.142.385Zm.227-1.81h.482l1.158,2.977h-.529l-.3-.78H61.223l-.293.78h-.525Zm4.787.747h.487v2.23h-.373l-.061-.269H66.4a1.2,1.2,0,0,1-.3.22.9.9,0,0,1-.435.1.8.8,0,0,1-.567-.2.776.776,0,0,1-.213-.6v-1.484h.487v1.432a.461.461,0,0,0,.12.364.43.43,0,0,0,.291.1.665.665,0,0,0,.326-.078.958.958,0,0,0,.255-.206Zm1.588,2.23h-.487v-2.23h.383l.066.3a1.323,1.323,0,0,1,.347-.248.943.943,0,0,1,.413-.087.741.741,0,0,1,.548.194.748.748,0,0,1,.194.553v1.522H68.93v-1.46a.45.45,0,0,0-.1-.307.375.375,0,0,0-.3-.113.674.674,0,0,0-.3.073,1.017,1.017,0,0,0-.281.21Zm4.839-.359a1.553,1.553,0,0,0,.385-.04,1.6,1.6,0,0,0,.291-.106l.109.392a1.717,1.717,0,0,1-.35.116,2.246,2.246,0,0,1-.487.045,1.6,1.6,0,0,1-.574-.1,1.3,1.3,0,0,1-.463-.3,1.4,1.4,0,0,1-.31-.482,1.764,1.764,0,0,1-.113-.654,1.8,1.8,0,0,1,.109-.645,1.373,1.373,0,0,1,.3-.484,1.3,1.3,0,0,1,.468-.3,1.66,1.66,0,0,1,.6-.1,2,2,0,0,1,.489.05,1.466,1.466,0,0,1,.338.13l-.118.383a2.541,2.541,0,0,0-.3-.113,1.219,1.219,0,0,0-.343-.043,1.2,1.2,0,0,0-.385.061.794.794,0,0,0-.317.2.987.987,0,0,0-.215.352,1.482,1.482,0,0,0-.08.517,1.523,1.523,0,0,0,.078.517.973.973,0,0,0,.208.35.8.8,0,0,0,.307.2A1.1,1.1,0,0,0,72.791-14.121Zm1.318.359v-3.36h.477v3.36Zm1.167,0v-2.23h.487v2.23Zm.246-2.783a.27.27,0,0,1-.2-.078.27.27,0,0,1-.076-.2.27.27,0,0,1,.076-.2.27.27,0,0,1,.2-.078.272.272,0,0,1,.2.078.266.266,0,0,1,.078.2.264.264,0,0,1-.078.2A.276.276,0,0,1,75.522-16.545Zm2.008,2.462a.913.913,0,0,0,.267-.035,1.36,1.36,0,0,0,.21-.083l.1.35a1.11,1.11,0,0,1-.274.1,1.548,1.548,0,0,1-.354.038,1.419,1.419,0,0,1-.461-.073,1.05,1.05,0,0,1-.373-.217,1.018,1.018,0,0,1-.25-.361,1.287,1.287,0,0,1-.092-.506,1.294,1.294,0,0,1,.085-.48,1.031,1.031,0,0,1,.241-.366A1.053,1.053,0,0,1,77-15.95a1.367,1.367,0,0,1,.477-.08,1.881,1.881,0,0,1,.3.024,1.229,1.229,0,0,1,.328.109l-.109.354a.944.944,0,0,0-.463-.123.716.716,0,0,0-.529.2.78.78,0,0,0-.2.577.994.994,0,0,0,.064.38.683.683,0,0,0,.168.248.614.614,0,0,0,.234.135A.9.9,0,0,0,77.531-14.083Zm1.512-.473v.794h-.482v-3.36h.482v2.06l.846-.931h.6l-.9.94.94,1.29h-.572l-.7-1Zm2.3-1.89-.057,1.871h-.369l-.047-1.871ZM81.1-14.272a.254.254,0,0,1,.191.076.273.273,0,0,1,.073.2.273.273,0,0,1-.073.2.254.254,0,0,1-.191.076.254.254,0,0,1-.191-.076.273.273,0,0,1-.073-.2.273.273,0,0,1,.073-.2A.254.254,0,0,1,81.1-14.272Z" transform="translate(-20664.822 -17486.84)" fill="#fff"/>
  </g>
</svg>
